<?xml version="1.0" standalone="no"?>
<!DOCTYPE svg PUBLIC "-//W3C//DTD SVG 20010904//EN"
 "http://www.w3.org/TR/2001/REC-SVG-20010904/DTD/svg10.dtd">
<svg version="1.0" xmlns="http://www.w3.org/2000/svg"
 width="312.000000pt" height="312.000000pt" viewBox="0 0 312.000000 312.000000"
 preserveAspectRatio="xMidYMid meet">

<g transform="translate(0.000000,312.000000) scale(0.100000,-0.100000)"
fill="#000000" stroke="none">
<path d="M1290 3090 c-317 -56 -593 -201 -826 -434 -238 -238 -380 -512 -436
-841 -27 -157 -21 -439 11 -580 140 -605 573 -1047 1166 -1191 701 -170 1444
186 1755 839 282 591 173 1280 -275 1746 -244 254 -525 404 -863 462 -150 25
-384 25 -532 -1z m570 -55 c594 -130 1039 -573 1172 -1166 20 -90 23 -131 23
-309 0 -160 -4 -224 -18 -290 -144 -673 -691 -1159 -1362 -1209 -613 -46
-1183 278 -1460 829 -96 191 -143 376 -152 600 -18 445 134 833 446 1140 238
234 525 374 866 424 71 10 412 -3 485 -19z"/>
<path d="M1444 2903 c13 -174 15 -183 43 -183 21 0 24 3 19 28 -2 15 -8 75
-11 135 -7 106 -7 107 -32 107 l-25 0 6 -87z"/>
<path d="M1597 2979 c-61 -36 -62 -229 -2 -253 37 -14 86 -6 109 17 26 26 43
122 31 176 -12 57 -87 89 -138 60z m81 -51 c13 -13 16 -67 6 -117 -8 -39 -36
-56 -64 -41 -17 9 -20 21 -20 71 0 33 5 69 10 80 12 21 50 25 68 7z"/>
<path d="M1280 2963 c-41 -8 -76 -16 -77 -17 -1 -1 0 -11 3 -23 5 -18 11 -21
39 -16 l33 5 19 -103 c17 -92 22 -104 41 -107 27 -4 28 7 7 115 -21 110 -21
113 16 113 24 0 30 3 25 16 -3 9 -6 20 -6 25 0 11 -5 11 -100 -8z"/>
<path d="M1801 2843 c-21 -82 -28 -130 -22 -136 19 -19 38 2 50 59 21 93 25
92 54 -4 17 -55 34 -92 44 -96 9 -4 18 -4 21 -2 9 10 70 255 64 260 -3 3 -13
6 -23 6 -18 0 -29 -26 -45 -108 -4 -18 -10 -32 -13 -32 -4 0 -18 36 -30 80
-21 70 -40 100 -64 100 -3 0 -19 -57 -36 -127z"/>
<path d="M1043 2884 c-6 -17 2 -262 10 -270 11 -11 36 10 39 34 2 20 12 30 41
41 33 12 39 12 55 -3 21 -18 31 -20 51 -7 10 7 -7 34 -74 115 -86 104 -110
122 -122 90z m97 -136 c0 -7 -33 -28 -44 -28 -3 0 -6 21 -6 48 l0 47 25 -30
c13 -16 24 -33 25 -37z"/>
<path d="M2115 2808 c-28 -29 -72 -76 -99 -105 l-49 -52 28 -7 c21 -5 31 -2
41 10 11 16 15 16 53 -4 31 -15 41 -26 41 -45 0 -14 8 -29 19 -35 22 -11 22
-10 42 169 9 86 9 105 -2 112 -21 13 -21 13 -74 -43z m30 -87 c-7 -45 -12 -48
-41 -27 -18 14 -18 15 10 45 16 17 31 29 34 27 2 -3 1 -23 -3 -45z"/>
<path d="M862 2807 c-8 -9 -1 -28 25 -70 19 -32 33 -61 30 -64 -3 -3 -39 13
-80 36 -65 36 -76 39 -92 27 -17 -12 -15 -19 45 -117 78 -128 74 -123 99 -110
21 11 20 13 -19 75 -22 35 -40 65 -40 68 0 3 38 -14 83 -38 71 -37 87 -42 101
-31 16 12 11 22 -51 124 -37 62 -73 112 -79 113 -6 0 -16 -6 -22 -13z"/>
<path d="M2266 2665 c-42 -58 -76 -109 -76 -113 0 -9 117 -92 130 -92 6 0 20
23 20 34 0 2 -18 15 -40 30 -22 14 -40 31 -40 37 0 6 27 49 61 96 34 46 60 85
58 86 -2 2 -11 8 -21 15 -14 11 -26 0 -92 -93z"/>
<path d="M1348 2650 c-271 -57 -489 -188 -650 -390 -165 -206 -248 -440 -248
-700 0 -301 112 -574 324 -786 165 -165 359 -266 594 -310 129 -24 343 -15
477 20 337 88 629 351 751 674 246 656 -145 1360 -828 1493 -128 25 -301 24
-420 -1z m256 -129 c20 -20 44 -32 85 -40 32 -6 78 -25 103 -41 50 -33 98
-110 98 -158 0 -16 7 -35 16 -43 19 -15 54 -82 54 -102 0 -16 72 -26 210 -30
112 -4 181 -49 234 -154 9 -19 33 -41 56 -53 44 -23 49 -39 24 -89 -11 -23
-14 -45 -9 -81 11 -77 -9 -151 -55 -203 -22 -24 -52 -50 -67 -56 -15 -7 -40
-30 -56 -52 -15 -22 -39 -45 -53 -51 -20 -9 -24 -16 -18 -32 3 -12 10 -50 14
-86 3 -36 14 -82 23 -102 37 -81 16 -167 -63 -262 -25 -31 -40 -58 -40 -76 0
-38 -22 -54 -69 -47 -26 3 -53 -1 -82 -15 -114 -51 -197 -44 -273 23 -24 21
-52 39 -62 39 -23 0 -104 48 -104 61 0 6 -13 0 -29 -13 -15 -14 -44 -30 -62
-37 -41 -15 -45 -17 -99 -59 -77 -58 -165 -66 -252 -21 -31 16 -53 20 -90 17
-57 -6 -78 8 -78 52 0 18 -14 45 -40 76 -81 98 -100 184 -60 273 11 24 20 63
20 88 0 24 7 57 15 73 14 28 14 29 -20 48 -19 12 -44 37 -57 56 -13 20 -32 39
-42 42 -10 3 -39 24 -63 47 -56 52 -78 119 -68 212 6 52 4 70 -9 90 -26 40
-20 62 24 85 22 11 47 34 56 53 55 105 106 139 229 149 222 19 212 16 219 50
3 17 17 46 31 64 13 17 29 54 35 80 23 100 91 163 201 185 41 8 65 20 85 40
15 16 35 29 44 29 9 0 29 -13 44 -29z"/>
<path d="M1532 2439 c-13 -10 -47 -23 -77 -29 -95 -20 -155 -80 -155 -156 0
-19 -8 -38 -21 -50 -30 -26 -51 -79 -43 -109 3 -14 8 -25 10 -25 3 0 26 11 52
24 84 43 160 60 262 60 102 0 178 -17 262 -60 57 -29 54 -29 61 -4 8 31 -10
84 -38 110 -16 15 -25 34 -25 54 0 75 -60 136 -153 156 -28 6 -66 19 -83 29
-29 17 -31 17 -52 0z"/>
<path d="M1451 2075 c-108 -24 -185 -67 -265 -148 -114 -115 -163 -242 -153
-397 16 -242 183 -434 423 -485 87 -18 121 -18 209 0 105 22 189 68 264 144
296 297 147 799 -264 886 -85 18 -130 18 -214 0z m46 -135 c15 0 15 -2 0 -18
-10 -10 -17 -29 -17 -42 0 -19 -2 -20 -15 -10 -8 7 -27 10 -41 7 -22 -4 -25
-2 -20 16 3 11 1 29 -5 39 -8 15 -6 18 10 18 11 0 26 10 32 22 l12 22 14 -27
c7 -15 21 -27 30 -27z m227 10 c16 0 17 -2 5 -16 -8 -9 -12 -27 -11 -40 3 -18
-1 -21 -16 -17 -11 2 -29 0 -41 -6 -19 -10 -21 -9 -21 12 0 14 -7 30 -16 38
-14 12 -14 14 6 21 12 4 24 17 27 29 l6 20 21 -20 c12 -12 30 -21 40 -21z
m-449 -119 c3 -10 16 -22 28 -25 21 -6 21 -7 5 -20 -10 -7 -18 -23 -18 -35 0
-22 -14 -28 -26 -10 -3 6 -17 8 -31 4 -22 -5 -25 -3 -20 14 2 11 -2 29 -10 40
-13 20 -12 21 12 21 14 0 28 7 31 15 8 21 21 19 29 -4z m601 4 c4 -8 17 -15
30 -15 22 0 23 -2 13 -21 -6 -12 -8 -30 -6 -41 5 -16 2 -19 -15 -15 -12 4 -30
2 -40 -4 -15 -8 -18 -6 -18 10 0 11 -9 26 -20 34 -20 14 -19 14 5 25 14 6 25
18 25 27 0 19 19 20 26 0z m-176 -125 c0 -19 -7 -20 -140 -20 -133 0 -140 1
-140 20 0 19 7 20 140 20 133 0 140 -1 140 -20z m-2 -82 c-3 -23 -6 -23 -138
-23 -132 0 -135 0 -138 23 -3 22 -3 22 138 22 141 0 141 0 138 -22z m-498 -3
c0 -9 11 -21 25 -27 24 -11 25 -11 5 -25 -11 -8 -20 -23 -20 -34 0 -16 -3 -18
-18 -10 -10 6 -28 8 -40 4 -17 -4 -20 -1 -15 15 2 11 0 29 -6 41 -11 19 -9 21
14 21 14 0 28 7 31 15 8 20 24 19 24 0z m779 -15 c22 0 28 -14 10 -26 -6 -3
-8 -17 -4 -31 5 -23 4 -25 -19 -19 -14 3 -28 2 -31 -4 -10 -16 -25 -12 -25 7
0 9 -8 25 -17 35 -16 18 -16 19 4 24 12 3 24 16 27 27 6 21 7 21 20 5 7 -10
23 -18 35 -18z m-311 -67 c3 -23 2 -23 -107 -23 -60 0 -112 4 -115 9 -4 5 -3
16 0 25 5 14 22 16 113 14 101 -3 106 -4 109 -25z m22 -83 c0 -19 -7 -20 -130
-20 -123 0 -130 1 -130 20 0 19 7 20 130 20 123 0 130 -1 130 -20z m15 -85 c0
-19 -8 -20 -139 -23 -141 -3 -164 2 -153 33 6 13 26 15 149 13 135 -3 143 -4
143 -23z m33 -82 l3 -23 -180 0 c-169 0 -181 1 -181 18 0 10 3 22 7 26 4 3 84
5 177 4 169 -3 171 -3 174 -25z m27 -83 c0 -13 -31 -15 -207 -18 -204 -2 -208
-2 -208 18 0 20 4 20 208 18 176 -3 207 -5 207 -18z m15 -85 l0 -25 -220 0
-220 0 0 25 0 25 220 0 220 0 0 -25z"/>
<path d="M1055 2034 c-22 -11 -44 -14 -85 -9 -89 10 -139 -18 -187 -107 -14
-26 -37 -55 -50 -63 -18 -12 -22 -21 -17 -38 4 -12 8 -63 8 -114 1 -106 15
-133 85 -169 23 -11 51 -35 61 -51 23 -38 57 -63 87 -63 21 0 22 3 16 28 -17
60 -8 214 17 291 25 78 96 195 149 245 38 36 38 40 6 54 -34 16 -54 15 -90 -4z"/>
<path d="M1980 2043 c-39 -15 -39 -24 1 -64 57 -57 114 -149 141 -227 20 -57
23 -87 23 -200 0 -128 1 -132 21 -132 27 0 70 34 89 70 9 18 33 37 59 49 68
29 80 56 86 185 l5 111 -35 41 c-19 23 -44 57 -55 75 -11 18 -36 44 -55 57
-31 21 -43 23 -97 18 -43 -3 -73 -1 -97 9 -36 15 -60 18 -86 8z"/>
<path d="M979 1314 c-19 -21 -24 -36 -24 -82 0 -31 -6 -68 -14 -81 -42 -75
-33 -134 35 -213 24 -29 47 -63 50 -75 4 -16 14 -23 30 -23 14 0 51 -11 84
-25 63 -27 127 -32 163 -14 12 6 38 26 57 44 20 19 51 35 72 39 24 4 46 18 62
37 34 40 33 49 -7 49 -78 0 -215 58 -305 130 -57 44 -134 141 -162 202 l-17
38 -24 -26z"/>
<path d="M2085 1281 c-17 -32 -63 -90 -110 -137 -93 -94 -192 -149 -304 -168
-62 -10 -68 -13 -61 -31 12 -32 42 -53 88 -63 26 -6 50 -20 63 -36 48 -61 117
-71 214 -31 33 14 72 25 86 25 20 0 28 6 33 25 3 13 26 47 50 74 70 79 80 142
35 217 -13 21 -17 41 -13 66 7 37 -17 102 -40 111 -7 3 -24 -19 -41 -52z"/>
<path d="M576 2602 c-16 -19 -17 -27 -7 -85 6 -35 11 -68 11 -72 0 -5 -20 10
-44 34 -44 43 -44 43 -56 21 -11 -20 -8 -27 27 -62 21 -22 64 -63 96 -90 55
-48 59 -50 75 -34 16 16 15 19 -15 45 -22 18 -33 36 -33 54 l0 26 64 -19 c63
-18 65 -18 82 1 9 11 15 21 13 23 -2 2 -40 12 -84 23 l-80 19 -8 39 c-5 22
-12 53 -15 69 l-7 28 -19 -20z"/>
<path d="M2513 2509 c-105 -95 -116 -128 -59 -185 54 -54 80 -47 188 49 58 52
65 62 55 78 -7 11 -14 19 -17 19 -3 0 -38 -29 -78 -65 -75 -67 -100 -77 -122
-49 -21 24 -2 56 71 122 56 50 64 61 54 75 -7 10 -15 17 -18 17 -4 0 -37 -28
-74 -61z"/>
<path d="M369 2351 c-53 -53 -32 -114 60 -172 43 -28 90 -36 126 -23 21 8 45
56 45 90 0 47 -113 134 -175 134 -16 0 -38 -12 -56 -29z m127 -53 c56 -38 71
-78 35 -98 -24 -12 -58 2 -110 46 -33 27 -39 52 -19 72 19 19 42 14 94 -20z"/>
<path d="M2653 2294 c-62 -36 -113 -72 -113 -80 0 -29 31 -26 91 10 33 20 62
36 63 36 2 0 -17 -39 -42 -86 -38 -74 -42 -88 -30 -100 12 -12 29 -5 118 47
125 73 122 71 114 92 -9 24 -18 22 -85 -18 -33 -19 -62 -35 -65 -35 -2 0 16
37 41 83 38 70 43 86 32 100 -11 15 -23 10 -124 -49z"/>
<path d="M267 2149 c-11 -6 -25 -26 -33 -45 -12 -29 -12 -39 0 -69 12 -27 27
-40 73 -61 81 -36 128 -37 159 -1 26 30 31 75 13 108 -14 26 -125 79 -164 79
-16 0 -38 -5 -48 -11z m123 -62 c49 -24 65 -62 36 -86 -29 -24 -156 31 -156
68 0 45 50 53 120 18z"/>
<path d="M2763 2062 c-62 -25 -113 -50 -113 -56 1 -38 18 -36 136 13 65 27
119 54 118 60 -4 40 -1 40 -141 -17z"/>
<path d="M2815 1950 c-150 -96 -149 -103 28 -114 76 -5 140 -7 142 -4 2 2 2
14 -2 26 -5 21 -11 22 -97 23 -74 0 -88 2 -73 12 10 7 45 29 77 49 47 30 57
40 53 57 -3 12 -8 21 -12 21 -3 0 -55 -32 -116 -70z"/>
<path d="M187 1918 c-24 -24 -54 -124 -41 -137 3 -3 60 -18 127 -33 91 -20
124 -24 129 -15 15 23 8 35 -24 42 -67 13 -66 13 -58 52 14 62 -11 100 -73
110 -29 4 -40 1 -60 -19z m82 -42 c6 -7 8 -27 5 -45 -6 -27 -10 -32 -28 -27
-12 3 -27 6 -33 6 -16 0 -17 34 -3 61 12 22 43 25 59 5z"/>
<path d="M2890 1759 c-41 -4 -94 -11 -117 -14 l-42 -6 5 -47 c12 -105 14 -112
36 -112 19 0 20 4 15 60 l-5 60 34 0 c31 0 34 -3 34 -29 0 -43 10 -61 32 -61
18 0 20 6 16 50 l-3 50 33 0 c27 0 32 -4 32 -24 0 -13 3 -38 6 -55 5 -25 11
-31 28 -29 23 3 23 3 11 111 -5 45 -10 57 -23 56 -9 -1 -51 -5 -92 -10z"/>
<path d="M174 1680 c-47 -19 -68 -85 -43 -132 33 -62 229 -64 253 -3 9 26 7
74 -5 97 -12 22 -66 48 -103 48 -27 0 -36 -16 -36 -67 0 -30 3 -34 23 -31 14
2 23 11 25 26 4 27 23 28 47 2 15 -17 16 -24 7 -45 -11 -23 -17 -25 -80 -25
-40 0 -73 5 -80 12 -19 19 -14 56 8 70 11 7 20 23 20 35 0 25 -4 26 -36 13z"/>
<path d="M2748 1522 c-8 -29 -2 -32 54 -32 45 0 49 -2 46 -22 -2 -16 -16 -26
-52 -38 -39 -13 -51 -22 -57 -43 -9 -32 -4 -33 62 -7 l52 19 19 -24 c41 -53
138 -15 138 53 0 16 3 43 6 60 6 29 5 30 -42 36 -27 3 -88 8 -135 12 -81 6
-86 5 -91 -14z m216 -50 c3 -5 2 -22 -3 -38 -5 -21 -14 -30 -34 -32 -21 -3
-28 2 -33 22 -9 39 2 56 35 56 16 0 32 -4 35 -8z"/>
<path d="M335 1450 c-22 -4 -79 -13 -126 -20 -84 -11 -86 -12 -81 -36 5 -27 2
-27 122 -7 30 5 33 4 23 -9 -7 -8 -38 -35 -68 -59 -37 -30 -55 -51 -55 -66 0
-15 6 -23 18 -23 26 0 244 39 250 44 2 3 2 13 -2 22 -5 14 -16 16 -67 10 -33
-4 -67 -10 -75 -13 -30 -11 -10 14 52 65 47 39 64 60 64 78 0 13 -3 24 -7 23
-5 -1 -26 -5 -48 -9z"/>
<path d="M2737 1311 c-53 -63 -42 -136 23 -157 45 -15 71 -5 91 34 27 53 39
63 60 51 24 -12 25 -46 2 -71 -15 -17 -15 -20 -1 -34 20 -21 36 -11 55 33 27
67 -6 123 -74 123 -36 0 -54 -15 -72 -58 -15 -35 -37 -47 -57 -31 -19 16 -17
38 5 75 15 25 16 33 6 47 -12 16 -15 15 -38 -12z"/>
<path d="M263 1168 c-80 -29 -92 -39 -75 -65 6 -10 27 -5 87 18 97 37 139 36
143 -3 4 -33 -28 -56 -119 -83 -62 -19 -77 -33 -62 -58 7 -12 23 -9 98 19 52
20 99 45 113 60 31 36 29 79 -7 115 -37 37 -69 36 -178 -3z"/>
<path d="M2666 1117 c-3 -12 -2 -24 2 -28 4 -3 58 -25 120 -49 95 -36 115 -41
123 -29 15 23 7 30 -71 61 -41 17 -96 38 -121 48 l-47 19 -6 -22z"/>
<path d="M2607 993 c-18 -18 1 -35 88 -83 l95 -51 -15 -29 c-14 -27 -14 -30 4
-40 18 -9 24 -3 55 52 48 86 49 93 30 109 -12 9 -18 10 -21 3 -2 -6 -10 -20
-18 -30 -14 -18 -18 -17 -103 29 -91 48 -104 52 -115 40z"/>
<path d="M484 945 c-32 -19 -62 -26 -128 -31 -47 -4 -86 -9 -86 -11 0 -2 5
-13 10 -24 9 -17 18 -18 67 -12 62 7 62 7 16 -54 -20 -26 -22 -35 -13 -53 6
-11 14 -19 18 -16 4 2 28 34 52 69 31 44 60 73 92 91 42 24 47 30 38 47 -13
24 -16 24 -66 -6z"/>
<path d="M578 840 c-8 -19 -23 -59 -33 -87 l-19 -53 -68 0 -69 0 18 -25 c17
-24 21 -25 86 -19 37 3 67 3 67 0 0 -3 -17 -21 -37 -40 -36 -33 -37 -36 -21
-52 15 -16 22 -12 110 61 51 43 97 82 102 86 9 8 -10 39 -24 39 -5 0 -22 -11
-38 -25 -30 -25 -72 -34 -72 -15 0 5 11 34 24 64 24 54 24 56 6 78 l-18 23
-14 -35z"/>
<path d="M2501 828 c-7 -11 -11 -21 -9 -22 50 -29 98 -84 127 -145 19 -39 37
-71 41 -71 3 0 11 9 17 19 10 16 8 27 -13 66 -15 25 -24 48 -22 50 2 2 27 -2
55 -9 50 -13 53 -13 66 8 15 22 14 22 -71 40 -60 12 -97 26 -121 45 -53 41
-56 42 -70 19z"/>
<path d="M2168 544 c-54 -30 -98 -59 -98 -64 0 -24 27 -17 101 24 45 25 85 43
90 40 5 -3 18 -23 29 -45 20 -38 42 -50 55 -29 7 11 -61 130 -73 130 -4 -1
-51 -26 -104 -56z"/>
<path d="M886 575 c-3 -10 8 -22 34 -35 22 -11 40 -22 40 -25 0 -2 -10 -13
-22 -25 -15 -13 -35 -20 -64 -20 -55 0 -69 -26 -19 -36 46 -8 99 11 130 47 21
26 33 59 21 59 -2 0 -28 11 -59 24 -46 21 -56 22 -61 11z"/>
<path d="M1006 485 c-3 -10 5 -20 25 -30 16 -9 27 -20 24 -25 -4 -7 -13 -6
-25 0 -10 5 -26 10 -34 10 -25 0 -19 -26 9 -38 17 -8 24 -18 22 -34 -1 -14 4
-23 15 -26 13 -2 25 14 48 64 16 37 30 70 30 74 0 14 -33 21 -41 8 -6 -9 -13
-9 -34 0 -32 15 -32 15 -39 -3z"/>
<path d="M2232 473 c-9 -4 -6 -16 13 -48 30 -52 30 -52 5 -65 -17 -9 -22 -5
-40 29 -23 46 -31 53 -50 41 -12 -7 -11 -15 8 -48 27 -49 27 -59 2 -67 -23 -7
-26 -23 -6 -31 15 -6 246 122 246 136 0 20 -23 20 -60 -1 -22 -12 -41 -21 -43
-18 -2 2 -14 21 -26 42 -23 38 -26 39 -49 30z"/>
<path d="M1160 428 c-18 -65 -15 -69 100 -99 58 -15 108 -25 111 -23 4 2 10
20 13 40 4 19 9 41 12 48 7 17 -27 30 -37 15 -9 -16 -149 18 -149 36 0 7 -9
15 -20 18 -16 4 -22 -2 -30 -35z m118 -44 c60 -17 89 -34 59 -34 -32 0 -147
32 -147 41 0 13 25 11 88 -7z"/>
<path d="M1960 458 c0 -7 4 -29 9 -48 6 -19 15 -54 21 -77 11 -44 16 -48 37
-35 9 6 10 17 4 40 -8 26 -6 32 9 37 24 8 15 35 -11 35 -14 0 -21 9 -25 30 -5
21 -12 30 -25 30 -11 0 -19 -6 -19 -12z"/>
<path d="M1813 430 c-10 -11 -26 -20 -36 -20 -12 0 -17 -6 -15 -17 2 -13 11
-17 32 -15 28 4 28 3 12 -19 -36 -52 -7 -109 57 -109 31 0 77 39 77 65 0 28
-20 56 -48 67 l-27 10 28 10 c15 5 27 17 27 25 0 12 -7 14 -35 9 -22 -4 -35
-3 -35 4 0 16 -19 12 -37 -10z m82 -110 c0 -20 -6 -26 -28 -28 -29 -4 -44 16
-33 44 4 10 15 14 33 12 22 -2 28 -8 28 -28z"/>
<path d="M850 370 c-55 -55 41 -155 130 -135 56 12 66 67 22 116 -23 26 -38
33 -79 36 -43 5 -54 2 -73 -17z m114 -31 c53 -42 17 -92 -48 -65 -42 17 -57
53 -30 73 25 18 47 16 78 -8z"/>
<path d="M1452 278 l3 -113 58 -3 c46 -2 57 0 57 13 0 11 -11 15 -40 15 l-40
0 0 80 0 80 35 0 c28 0 35 4 35 20 0 18 -7 20 -55 20 l-56 0 3 -112z"/>
<path d="M1590 270 c0 -113 1 -120 20 -120 18 0 20 7 20 60 0 53 2 60 20 60
18 0 20 -7 20 -60 0 -53 2 -60 20 -60 19 0 20 7 20 120 0 113 -1 120 -20 120
-17 0 -20 -7 -20 -40 0 -33 -3 -40 -20 -40 -17 0 -20 7 -20 40 0 33 -3 40 -20
40 -19 0 -20 -7 -20 -120z"/>
<path d="M1116 325 c-3 -10 6 -17 32 -25 20 -5 42 -10 49 -10 15 0 26 -17 19
-29 -4 -5 -25 -3 -50 4 -39 12 -45 12 -50 -2 -4 -9 -5 -17 -4 -18 2 -1 45 -13
96 -26 50 -13 92 -28 92 -34 0 -6 -4 -25 -9 -43 -9 -31 -8 -33 12 -30 16 2 25
15 34 47 7 24 10 47 7 52 -3 5 -23 13 -44 19 -24 6 -40 17 -40 25 0 18 2 18
68 1 48 -13 53 -13 50 2 -2 11 -33 24 -103 42 -158 42 -152 41 -159 25z"/>
<path d="M1931 249 c-112 -30 -120 -34 -104 -50 7 -7 35 -4 91 10 44 12 85 21
91 21 5 0 13 -16 17 -35 7 -37 11 -40 32 -26 10 6 11 18 3 51 -5 23 -13 46
-18 50 -4 4 -55 -6 -112 -21z"/>
</g>
</svg>
