<?xml version="1.0" standalone="no"?>
<!DOCTYPE svg PUBLIC "-//W3C//DTD SVG 20010904//EN"
 "http://www.w3.org/TR/2001/REC-SVG-20010904/DTD/svg10.dtd">
<svg version="1.0" xmlns="http://www.w3.org/2000/svg"
 width="272.000000pt" height="185.000000pt" viewBox="0 0 272.000000 185.000000"
 preserveAspectRatio="xMidYMid meet">

<g transform="translate(0.000000,185.000000) scale(0.100000,-0.100000)"
fill="#000000" stroke="none">
<path d="M872 1822 c-100 -33 -161 -108 -162 -199 0 -95 56 -159 206 -233 77
-38 111 -61 125 -84 39 -63 14 -157 -50 -191 -33 -17 -107 -20 -144 -6 -37 14
-96 69 -117 110 l-19 36 -1 -81 0 -80 68 -24 c50 -18 87 -24 147 -24 91 0 132
14 190 65 50 45 75 100 75 172 0 113 -39 157 -213 241 -61 29 -120 63 -130 74
-29 31 -32 91 -8 130 51 81 193 64 262 -31 l29 -40 0 70 0 69 -47 17 c-75 26
-150 30 -211 9z"/>
<path d="M2317 1809 c-17 -40 -183 -424 -257 -594 -29 -66 -61 -130 -73 -142
l-20 -23 67 0 c59 0 67 2 56 15 -13 16 -10 30 32 133 l30 72 139 0 139 0 24
-54 c46 -103 51 -125 38 -146 -12 -19 -9 -20 100 -20 l111 0 -20 23 c-28 30
-31 36 -198 422 -81 187 -149 342 -151 344 -1 2 -9 -12 -17 -30z m35 -349 l56
-140 -114 0 c-81 0 -114 3 -114 12 0 16 104 268 110 268 3 0 31 -63 62 -140z"/>
<path d="M28 1808 c6 -8 12 -122 14 -293 5 -317 9 -338 81 -400 56 -48 125
-70 222 -70 101 0 163 22 208 76 54 62 59 95 66 412 l6 287 -40 0 -40 0 3
-282 c3 -317 -1 -342 -63 -397 -82 -72 -232 -44 -275 52 -18 38 -20 68 -20
323 0 205 3 283 12 292 9 9 -10 12 -86 12 -78 0 -96 -3 -88 -12z"/>
<path d="M1298 1449 c2 -285 0 -375 -10 -386 -11 -14 10 -15 187 -11 183 4
206 7 272 30 94 34 167 88 213 160 116 178 59 416 -124 523 -76 44 -144 55
-351 55 l-190 0 3 -371z m360 306 c78 -23 131 -70 172 -149 32 -64 35 -76 35
-160 0 -111 -21 -177 -75 -239 -58 -65 -121 -90 -247 -95 l-103 -4 0 331 0
331 83 0 c46 0 106 -7 135 -15z"/>
<path d="M40 893 l0 -48 208 -2 c180 -1 343 -9 602 -28 l65 -4 -60 19 c-139
46 -415 86 -712 106 l-103 6 0 -49z"/>
<path d="M2180 929 c-721 -38 -1372 -156 -1837 -335 -126 -48 -280 -118 -218
-99 383 120 765 205 1165 259 406 55 706 76 1108 76 l282 0 0 55 0 55 -172 -1
c-95 -1 -243 -6 -328 -10z"/>
<path d="M40 709 c0 -48 1 -51 23 -45 42 11 252 45 387 61 74 10 144 21 155
25 11 5 -108 9 -272 9 l-293 1 0 -51z"/>
<path d="M2105 729 c-714 -36 -1414 -152 -1937 -319 l-128 -41 0 -184 0 -185
1320 0 1320 0 0 370 0 370 -207 -1 c-115 -1 -280 -6 -368 -10z"/>
</g>
</svg>
